
<svg width="2624px" height="497px" viewBox="0 0 2624 497" version="1.1" xmlns="http://www.w3.org/2000/svg" xmlns:xlink="http://www.w3.org/1999/xlink">
    <!-- Generator: Sketch 43.2 (39069) - http://www.bohemiancoding.com/sketch -->
    <desc>Created with Sketch.</desc>
    <defs>
        <linearGradient x1="50%" y1="0.693558673%" x2="50%" y2="100%" id="linearGradient-1">
            <stop stop-color="#F1ECC9" offset="0%"></stop>
            <stop stop-color="#F7F4E1" offset="100%"></stop>
        </linearGradient>
    </defs>
    <g id="Page-1" stroke="none" stroke-width="1" fill="none" fill-rule="evenodd">
        <g id="Desktop-HD-Copy" transform="translate(-196.000000, -801.000000)">
            <g id="Group-2" transform="translate(196.000000, 801.000000)">
                <path d="M803.202802,186.208494 L961.202802,254.208494 L1304.2028,177.208494 C1304.2028,177.208494 1557.2028,283.208494 1555.2028,287.208494 C1553.2028,291.208494 1742.2028,239.208494 1742.2028,239.208494 L1909.2028,279.208494 L2263.13581,233.159392 L2502,309.104247 L2624,186.208494 L2624,496.208494 L0,496.208494 L0,122 L188,238.208494 L491,186.208494 L710.202802,238.208494 L803.202802,186.208494 Z" id="Path-3" fill="#F7F4E1"></path>
                <polygon id="Path-6" fill="#F7F4E1" points="758 323 741 12 932 0 898 321"></polygon>
                <polygon id="Path-6-Copy" fill="#F7F4E1" points="1786.10377 323 1776 150.650155 1889.51887 144 1869.31132 321.891641"></polygon>
                <polygon id="Path-7" fill="url(#linearGradient-1)" points="930 0 953 59 919 309 899 319"></polygon>
                <polygon id="Path-7-Copy" fill="url(#linearGradient-1)" points="1888.37037 144 1902 176.736677 1881.85185 315.451411 1870 321"></polygon>
            </g>
        </g>
    </g>
</svg>
